<?xml version="1.0" encoding="UTF-8"?>
<svg xmlns="http://www.w3.org/2000/svg" xmlns:xlink="http://www.w3.org/1999/xlink" version="1.1" viewBox="0 0 1077.2 504">
  <defs>
    <style>
      .cls-1, .cls-2, .cls-3, .cls-4, .cls-5, .cls-6, .cls-7, .cls-8, .cls-9, .cls-10, .cls-11, .cls-12, .cls-13, .cls-14, .cls-15, .cls-16, .cls-17, .cls-18, .cls-19, .cls-20, .cls-21, .cls-22 {
        fill: none;
      }

      .cls-2, .cls-3, .cls-23, .cls-24, .cls-4, .cls-5, .cls-6, .cls-7, .cls-8, .cls-9, .cls-10, .cls-11, .cls-12, .cls-13, .cls-14, .cls-15, .cls-16, .cls-17, .cls-18, .cls-19, .cls-20, .cls-21, .cls-22 {
        stroke-linejoin: round;
      }

      .cls-2, .cls-23, .cls-24, .cls-7, .cls-9, .cls-11, .cls-13, .cls-14, .cls-15, .cls-16, .cls-17, .cls-19, .cls-20 {
        stroke-width: 1.1px;
      }

      .cls-2, .cls-10 {
        stroke: #cab2d6;
      }

      .cls-25 {
        font-family: Helvetica, Helvetica;
      }

      .cls-25, .cls-26, .cls-27, .cls-28, .cls-29, .cls-30, .cls-31, .cls-32 {
        isolation: isolate;
      }

      .cls-25, .cls-26, .cls-27, .cls-28, .cls-33, .cls-31, .cls-32 {
        fill: #333;
      }

      .cls-25, .cls-32 {
        font-size: 10px;
      }

      .cls-26, .cls-28, .cls-33, .cls-31 {
        font-size: 11px;
      }

      .cls-26, .cls-32 {
        font-family: ArialMT, Arial;
      }

      .cls-3 {
        stroke-width: 1.6px;
      }

      .cls-3, .cls-23, .cls-24, .cls-4, .cls-6, .cls-8, .cls-10, .cls-12, .cls-18, .cls-21, .cls-22 {
        stroke-linecap: round;
      }

      .cls-3, .cls-24, .cls-7, .cls-9 {
        stroke: #333;
      }

      .cls-34 {
        fill: #cab2d6;
      }

      .cls-34, .cls-35, .cls-36, .cls-37, .cls-38, .cls-39, .cls-40, .cls-41 {
        fill-opacity: .9;
      }

      .cls-27 {
        font-size: 12px;
      }

      .cls-27, .cls-28, .cls-29, .cls-33, .cls-30, .cls-31 {
        font-weight: 700;
      }

      .cls-27, .cls-30, .cls-31 {
        font-family: Arial-BoldMT, Arial;
      }

      .cls-23, .cls-24 {
        fill: #fff;
      }

      .cls-23, .cls-5 {
        stroke: #fff;
      }

      .cls-35 {
        fill: #ff7f00;
      }

      .cls-36 {
        fill: #e31a1c;
      }

      .cls-28, .cls-29, .cls-33 {
        font-family: Helvetica-Bold, Helvetica;
      }

      .cls-29, .cls-30 {
        font-size: 14px;
      }

      .cls-4, .cls-6, .cls-8, .cls-10, .cls-12, .cls-18, .cls-21, .cls-22 {
        stroke-width: .7px;
      }

      .cls-4, .cls-19 {
        stroke: #33a02c;
      }

      .cls-5 {
        stroke-width: .5px;
      }

      .cls-37 {
        fill: #33a02c;
      }

      .cls-6, .cls-15 {
        stroke: #f781bf;
      }

      .cls-42 {
        clip-path: url(#clippath-17);
      }

      .cls-43 {
        clip-path: url(#clippath-19);
      }

      .cls-44 {
        clip-path: url(#clippath-11);
      }

      .cls-45 {
        clip-path: url(#clippath-15);
      }

      .cls-46 {
        clip-path: url(#clippath-13);
      }

      .cls-47 {
        clip-path: url(#clippath-31);
      }

      .cls-48 {
        clip-path: url(#clippath-33);
      }

      .cls-49 {
        clip-path: url(#clippath-34);
      }

      .cls-50 {
        clip-path: url(#clippath-36);
      }

      .cls-51 {
        clip-path: url(#clippath-37);
      }

      .cls-52 {
        clip-path: url(#clippath-27);
      }

      .cls-53 {
        clip-path: url(#clippath-29);
      }

      .cls-54 {
        clip-path: url(#clippath-21);
      }

      .cls-55 {
        clip-path: url(#clippath-23);
      }

      .cls-56 {
        clip-path: url(#clippath-25);
      }

      .cls-7, .cls-13 {
        stroke-dasharray: 5.7 5.7;
      }

      .cls-8, .cls-20 {
        stroke: #fdbf6f;
      }

      .cls-57 {
        clip-path: url(#clippath-1);
      }

      .cls-58 {
        clip-path: url(#clippath-3);
      }

      .cls-59 {
        clip-path: url(#clippath-7);
      }

      .cls-60 {
        clip-path: url(#clippath-9);
      }

      .cls-61 {
        clip-path: url(#clippath-5);
      }

      .cls-38 {
        fill: #f781bf;
      }

      .cls-39 {
        fill: #b2df8a;
      }

      .cls-11, .cls-21 {
        stroke: #b2df8a;
      }

      .cls-12, .cls-17 {
        stroke: #ff7f00;
      }

      .cls-13 {
        stroke: #4d4d4d;
      }

      .cls-14, .cls-22 {
        stroke: #6a3d9a;
      }

      .cls-16, .cls-18 {
        stroke: #e31a1c;
      }

      .cls-40 {
        fill: #6a3d9a;
      }

      .cls-62 {
        letter-spacing: 0em;
      }

      .cls-63 {
        letter-spacing: 0em;
      }

      .cls-41 {
        fill: #fdbf6f;
      }
    </style>
    <clipPath id="clippath-1">
      <rect class="cls-1" width="615.5" height="504"/>
    </clipPath>
    <clipPath id="clippath-3">
      <rect class="cls-1" x="37.4" y="25.5" width="139.1" height="208.5"/>
    </clipPath>
    <clipPath id="clippath-5">
      <rect class="cls-1" x="37.4" y="259.5" width="139.1" height="208.5"/>
    </clipPath>
    <clipPath id="clippath-7">
      <rect class="cls-1" x="181.9" y="25.5" width="139.1" height="208.5"/>
    </clipPath>
    <clipPath id="clippath-9">
      <rect class="cls-1" x="181.9" y="259.5" width="139.1" height="208.5"/>
    </clipPath>
    <clipPath id="clippath-11">
      <rect class="cls-1" x="326.5" y="25.5" width="139.1" height="208.5"/>
    </clipPath>
    <clipPath id="clippath-13">
      <rect class="cls-1" x="326.5" y="259.5" width="139.1" height="208.5"/>
    </clipPath>
    <clipPath id="clippath-15">
      <rect class="cls-1" x="471" y="25.5" width="139" height="208.5"/>
    </clipPath>
    <clipPath id="clippath-17">
      <rect class="cls-1" x="471" y="259.5" width="139" height="208.5"/>
    </clipPath>
    <clipPath id="clippath-19">
      <rect class="cls-1" x="37.4" y="239.5" width="139.1" height="20"/>
    </clipPath>
    <clipPath id="clippath-21">
      <rect class="cls-1" x="181.9" y="239.5" width="139.1" height="20"/>
    </clipPath>
    <clipPath id="clippath-23">
      <rect class="cls-1" x="326.5" y="239.5" width="139.1" height="20"/>
    </clipPath>
    <clipPath id="clippath-25">
      <rect class="cls-1" x="471" y="239.5" width="139" height="20"/>
    </clipPath>
    <clipPath id="clippath-27">
      <rect class="cls-1" x="37.4" y="5.5" width="139.1" height="20"/>
    </clipPath>
    <clipPath id="clippath-29">
      <rect class="cls-1" x="181.9" y="5.5" width="139.1" height="20"/>
    </clipPath>
    <clipPath id="clippath-31">
      <rect class="cls-1" x="326.5" y="5.5" width="139.1" height="20"/>
    </clipPath>
    <clipPath id="clippath-33">
      <rect class="cls-1" x="471" y="5.5" width="139" height="20"/>
    </clipPath>
    <clipPath id="clippath-34">
      <rect class="cls-1" x="615.5" width="461.6" height="504"/>
    </clipPath>
    <clipPath id="clippath-36">
      <rect class="cls-1" x="652.9" y="5.5" width="418.8" height="402"/>
    </clipPath>
    <clipPath id="clippath-37">
      <rect class="cls-1" width="1077.2" height="504"/>
    </clipPath>
  </defs>
  <!-- Generator: Adobe Illustrator 28.7.1, SVG Export Plug-In . SVG Version: 1.2.0 Build 142)  -->
  <g>
    <g id="Layer_1">
      <rect class="cls-1" width="1077.2" height="504"/>
      <g class="cls-57">
        <rect class="cls-23" width="615.5" height="504"/>
      </g>
      <g class="cls-58">
        <g>
          <rect class="cls-24" x="37.4" y="25.5" width="139.1" height="208.5"/>
          <line class="cls-5" x1="75.3" y1="234" x2="75.3" y2="25.5"/>
          <line class="cls-5" x1="138.5" y1="234" x2="138.5" y2="25.5"/>
          <line class="cls-13" x1="37.4" y1="161.3" x2="176.4" y2="161.3"/>
          <polyline class="cls-17" points="43.7 113.5 106.9 153.1 170.1 163.4"/>
          <rect class="cls-12" x="41.8" y="111.5" width="3.9" height="3.9"/>
          <rect class="cls-12" x="105" y="151.1" width="3.9" height="3.9"/>
          <rect class="cls-12" x="168.2" y="161.4" width="3.9" height="3.9"/>
          <line class="cls-17" x1="43.7" y1="75.2" x2="43.7" y2="75.2"/>
          <line class="cls-17" x1="43.7" y1="75.2" x2="43.7" y2="151.8"/>
          <line class="cls-17" x1="43.7" y1="151.8" x2="43.7" y2="151.8"/>
          <line class="cls-17" x1="106.9" y1="131.7" x2="106.9" y2="131.7"/>
          <line class="cls-17" x1="106.9" y1="131.7" x2="106.9" y2="177.8"/>
          <line class="cls-17" x1="106.9" y1="177.8" x2="106.9" y2="177.8"/>
          <line class="cls-17" x1="170.1" y1="145.1" x2="170.1" y2="145.1"/>
          <line class="cls-17" x1="170.1" y1="145.1" x2="170.1" y2="183.6"/>
          <line class="cls-17" x1="170.1" y1="183.6" x2="170.1" y2="183.6"/>
        </g>
      </g>
      <g class="cls-61">
        <g>
          <rect class="cls-24" x="37.4" y="259.5" width="139.1" height="208.5"/>
          <line class="cls-5" x1="75.3" y1="468" x2="75.3" y2="259.5"/>
          <line class="cls-5" x1="138.5" y1="468" x2="138.5" y2="259.5"/>
          <line class="cls-13" x1="37.4" y1="395.3" x2="176.4" y2="395.3"/>
          <polyline class="cls-16" points="43.7 359.2 106.9 387 170.1 426.4"/>
          <polygon class="cls-18" points="43.7 362.2 46.3 357.7 41.1 357.7 43.7 362.2"/>
          <polygon class="cls-18" points="106.9 390 109.6 385.5 104.3 385.5 106.9 390"/>
          <polygon class="cls-18" points="170.1 429.4 172.8 424.9 167.5 424.9 170.1 429.4"/>
          <line class="cls-16" x1="43.7" y1="323.1" x2="43.7" y2="323.1"/>
          <line class="cls-16" x1="43.7" y1="323.1" x2="43.7" y2="395.3"/>
          <line class="cls-16" x1="43.7" y1="395.3" x2="43.7" y2="395.3"/>
          <line class="cls-16" x1="106.9" y1="363.7" x2="106.9" y2="363.7"/>
          <line class="cls-16" x1="106.9" y1="363.7" x2="106.9" y2="410.3"/>
          <line class="cls-16" x1="106.9" y1="410.3" x2="106.9" y2="410.3"/>
          <line class="cls-16" x1="170.1" y1="400.5" x2="170.1" y2="400.5"/>
          <line class="cls-16" x1="170.1" y1="400.5" x2="170.1" y2="449.7"/>
          <line class="cls-16" x1="170.1" y1="449.7" x2="170.1" y2="449.7"/>
        </g>
      </g>
      <g class="cls-59">
        <g>
          <rect class="cls-24" x="181.9" y="25.5" width="139.1" height="208.5"/>
          <line class="cls-5" x1="219.9" y1="234" x2="219.9" y2="25.5"/>
          <line class="cls-5" x1="283" y1="234" x2="283" y2="25.5"/>
          <line class="cls-13" x1="181.9" y1="161.3" x2="321" y2="161.3"/>
          <polyline class="cls-14" points="188.2 147.4 251.4 146 314.7 163.4"/>
          <polygon class="cls-22" points="188.2 144.4 190.9 148.9 185.6 148.9 188.2 144.4"/>
          <polygon class="cls-22" points="251.4 143 254.1 147.6 248.8 147.6 251.4 143"/>
          <polygon class="cls-22" points="314.7 160.3 317.3 164.9 312 164.9 314.7 160.3"/>
          <line class="cls-14" x1="188.2" y1="105.6" x2="188.2" y2="105.6"/>
          <line class="cls-14" x1="188.2" y1="105.6" x2="188.2" y2="189.2"/>
          <line class="cls-14" x1="188.2" y1="189.2" x2="188.2" y2="189.2"/>
          <line class="cls-14" x1="251.4" y1="122.3" x2="251.4" y2="122.3"/>
          <line class="cls-14" x1="251.4" y1="122.3" x2="251.4" y2="171.5"/>
          <line class="cls-14" x1="251.4" y1="171.5" x2="251.4" y2="171.5"/>
          <line class="cls-14" x1="314.7" y1="142.9" x2="314.7" y2="142.9"/>
          <line class="cls-14" x1="314.7" y1="142.9" x2="314.7" y2="183.9"/>
          <line class="cls-14" x1="314.7" y1="183.9" x2="314.7" y2="183.9"/>
        </g>
      </g>
      <g class="cls-60">
        <g>
          <rect class="cls-24" x="181.9" y="259.5" width="139.1" height="208.5"/>
          <line class="cls-5" x1="219.9" y1="468" x2="219.9" y2="259.5"/>
          <line class="cls-5" x1="283" y1="468" x2="283" y2="259.5"/>
          <line class="cls-13" x1="181.9" y1="395.3" x2="321" y2="395.3"/>
          <polyline class="cls-19" points="188.2 372.7 251.4 316.3 314.7 346.4"/>
          <line class="cls-4" x1="186.3" y1="374.7" x2="190.2" y2="370.8"/>
          <line class="cls-4" x1="186.3" y1="370.8" x2="190.2" y2="374.7"/>
          <line class="cls-4" x1="249.5" y1="318.3" x2="253.4" y2="314.4"/>
          <line class="cls-4" x1="249.5" y1="314.4" x2="253.4" y2="318.3"/>
          <line class="cls-4" x1="312.7" y1="348.3" x2="316.6" y2="344.4"/>
          <line class="cls-4" x1="312.7" y1="344.4" x2="316.6" y2="348.3"/>
          <line class="cls-19" x1="188.2" y1="327.6" x2="188.2" y2="327.6"/>
          <line class="cls-19" x1="188.2" y1="327.6" x2="188.2" y2="413.4"/>
          <line class="cls-19" x1="188.2" y1="413.4" x2="188.2" y2="413.4"/>
          <line class="cls-19" x1="251.4" y1="295" x2="251.4" y2="295"/>
          <line class="cls-19" x1="251.4" y1="295" x2="251.4" y2="339.4"/>
          <line class="cls-19" x1="251.4" y1="339.4" x2="251.4" y2="339.4"/>
          <line class="cls-19" x1="314.7" y1="321.9" x2="314.7" y2="321.9"/>
          <line class="cls-19" x1="314.7" y1="321.9" x2="314.7" y2="373.1"/>
          <line class="cls-19" x1="314.7" y1="373.1" x2="314.7" y2="373.1"/>
        </g>
      </g>
      <g class="cls-44">
        <g>
          <rect class="cls-24" x="326.5" y="25.5" width="139.1" height="208.5"/>
          <line class="cls-5" x1="364.4" y1="234" x2="364.4" y2="25.5"/>
          <line class="cls-5" x1="427.6" y1="234" x2="427.6" y2="25.5"/>
          <line class="cls-13" x1="326.5" y1="161.3" x2="465.5" y2="161.3"/>
          <polyline class="cls-2" points="332.8 140.5 396 132.6 459.2 152.9"/>
          <polygon class="cls-10" points="330 140.5 332.8 137.8 335.5 140.5 332.8 143.3 330 140.5"/>
          <polygon class="cls-10" points="393.2 132.6 396 129.9 398.8 132.6 396 135.4 393.2 132.6"/>
          <polygon class="cls-10" points="456.4 152.9 459.2 150.1 462 152.9 459.2 155.7 456.4 152.9"/>
          <line class="cls-2" x1="332.8" y1="107.2" x2="332.8" y2="107.2"/>
          <line class="cls-2" x1="332.8" y1="107.2" x2="332.8" y2="173.8"/>
          <line class="cls-2" x1="332.8" y1="173.8" x2="332.8" y2="173.8"/>
          <line class="cls-2" x1="396" y1="111.8" x2="396" y2="111.8"/>
          <line class="cls-2" x1="396" y1="111.8" x2="396" y2="153.4"/>
          <line class="cls-2" x1="396" y1="153.4" x2="396" y2="153.4"/>
          <line class="cls-2" x1="459.2" y1="136.1" x2="459.2" y2="136.1"/>
          <line class="cls-2" x1="459.2" y1="136.1" x2="459.2" y2="171.9"/>
          <line class="cls-2" x1="459.2" y1="171.9" x2="459.2" y2="171.9"/>
        </g>
      </g>
      <g class="cls-46">
        <g>
          <rect class="cls-24" x="326.5" y="259.5" width="139.1" height="208.5"/>
          <line class="cls-5" x1="364.4" y1="468" x2="364.4" y2="259.5"/>
          <line class="cls-5" x1="427.6" y1="468" x2="427.6" y2="259.5"/>
          <line class="cls-13" x1="326.5" y1="395.3" x2="465.5" y2="395.3"/>
          <polyline class="cls-11" points="332.8 327 396 318.8 459.2 351.8"/>
          <polygon class="cls-21" points="332.8 330 335.4 324.7 330.1 324.7 332.8 330"/>
          <polygon class="cls-21" points="332.8 324 335.4 329.3 330.1 329.3 332.8 324"/>
          <polygon class="cls-21" points="396 321.8 398.6 316.5 393.4 316.5 396 321.8"/>
          <polygon class="cls-21" points="396 315.7 398.6 321.1 393.4 321.1 396 315.7"/>
          <polygon class="cls-21" points="459.2 354.9 461.8 349.5 456.6 349.5 459.2 354.9"/>
          <polygon class="cls-21" points="459.2 348.8 461.8 354.1 456.6 354.1 459.2 348.8"/>
          <line class="cls-11" x1="332.8" y1="292.9" x2="332.8" y2="292.9"/>
          <line class="cls-11" x1="332.8" y1="292.9" x2="332.8" y2="365.4"/>
          <line class="cls-11" x1="332.8" y1="365.4" x2="332.8" y2="365.4"/>
          <line class="cls-11" x1="396" y1="299.2" x2="396" y2="299.2"/>
          <line class="cls-11" x1="396" y1="299.2" x2="396" y2="339.9"/>
          <line class="cls-11" x1="396" y1="339.9" x2="396" y2="339.9"/>
          <line class="cls-11" x1="459.2" y1="328.9" x2="459.2" y2="328.9"/>
          <line class="cls-11" x1="459.2" y1="328.9" x2="459.2" y2="374.7"/>
          <line class="cls-11" x1="459.2" y1="374.7" x2="459.2" y2="374.7"/>
        </g>
      </g>
      <g class="cls-45">
        <g>
          <rect class="cls-24" x="471" y="25.5" width="139" height="208.5"/>
          <line class="cls-5" x1="508.9" y1="234" x2="508.9" y2="25.5"/>
          <line class="cls-5" x1="572.1" y1="234" x2="572.1" y2="25.5"/>
          <line class="cls-13" x1="471" y1="161.3" x2="610" y2="161.3"/>
          <polyline class="cls-20" points="477.3 131.7 540.5 144.5 603.7 153.4"/>
          <circle class="cls-8" cx="477.3" cy="131.7" r="2"/>
          <circle class="cls-8" cx="540.5" cy="144.5" r="2"/>
          <circle class="cls-8" cx="603.7" cy="153.4" r="2"/>
          <line class="cls-20" x1="477.3" y1="92.2" x2="477.3" y2="92.2"/>
          <line class="cls-20" x1="477.3" y1="92.2" x2="477.3" y2="171.2"/>
          <line class="cls-20" x1="477.3" y1="171.2" x2="477.3" y2="171.2"/>
          <line class="cls-20" x1="540.5" y1="119.3" x2="540.5" y2="119.3"/>
          <line class="cls-20" x1="540.5" y1="119.3" x2="540.5" y2="169.7"/>
          <line class="cls-20" x1="540.5" y1="169.7" x2="540.5" y2="169.7"/>
          <line class="cls-20" x1="603.7" y1="132.4" x2="603.7" y2="132.4"/>
          <line class="cls-20" x1="603.7" y1="132.4" x2="603.7" y2="174.5"/>
          <line class="cls-20" x1="603.7" y1="174.5" x2="603.7" y2="174.5"/>
        </g>
      </g>
      <g class="cls-42">
        <g>
          <rect class="cls-24" x="471" y="259.5" width="139" height="208.5"/>
          <line class="cls-5" x1="508.9" y1="468" x2="508.9" y2="259.5"/>
          <line class="cls-5" x1="572.1" y1="468" x2="572.1" y2="259.5"/>
          <line class="cls-13" x1="471" y1="395.3" x2="610" y2="395.3"/>
          <polyline class="cls-15" points="477.3 316.3 540.5 309.3 603.7 345.2"/>
          <line class="cls-6" x1="475.4" y1="318.3" x2="479.3" y2="314.4"/>
          <line class="cls-6" x1="475.4" y1="314.4" x2="479.3" y2="318.3"/>
          <line class="cls-6" x1="474.5" y1="316.3" x2="480.1" y2="316.3"/>
          <line class="cls-6" x1="477.3" y1="319.1" x2="477.3" y2="313.6"/>
          <line class="cls-6" x1="538.6" y1="311.3" x2="542.5" y2="307.4"/>
          <line class="cls-6" x1="538.6" y1="307.4" x2="542.5" y2="311.3"/>
          <line class="cls-6" x1="537.8" y1="309.3" x2="543.3" y2="309.3"/>
          <line class="cls-6" x1="540.5" y1="312.1" x2="540.5" y2="306.5"/>
          <line class="cls-6" x1="601.8" y1="347.1" x2="605.7" y2="343.2"/>
          <line class="cls-6" x1="601.8" y1="343.2" x2="605.7" y2="347.1"/>
          <line class="cls-6" x1="601" y1="345.2" x2="606.5" y2="345.2"/>
          <line class="cls-6" x1="603.7" y1="347.9" x2="603.7" y2="342.4"/>
          <line class="cls-15" x1="477.3" y1="279.5" x2="477.3" y2="279.5"/>
          <line class="cls-15" x1="477.3" y1="279.5" x2="477.3" y2="363.7"/>
          <line class="cls-15" x1="477.3" y1="363.7" x2="477.3" y2="363.7"/>
          <line class="cls-15" x1="540.5" y1="288.3" x2="540.5" y2="288.3"/>
          <line class="cls-15" x1="540.5" y1="288.3" x2="540.5" y2="332.1"/>
          <line class="cls-15" x1="540.5" y1="332.1" x2="540.5" y2="332.1"/>
          <line class="cls-15" x1="603.7" y1="317.6" x2="603.7" y2="317.6"/>
          <line class="cls-15" x1="603.7" y1="317.6" x2="603.7" y2="375.2"/>
          <line class="cls-15" x1="603.7" y1="375.2" x2="603.7" y2="375.2"/>
        </g>
      </g>
      <g class="cls-43">
        <g>
          <rect class="cls-3" x="37.4" y="239.4" width="139.1" height="20"/>
          <text class="cls-27" transform="translate(91.7 253.8)"><tspan x="0" y="0">Tamil</tspan></text>
        </g>
      </g>
      <g class="cls-54">
        <g>
          <rect class="cls-3" x="181.9" y="239.4" width="139.1" height="20"/>
          <text class="cls-27" transform="translate(210.1 253.8)"><tspan x="0" y="0">English (India)</tspan></text>
        </g>
      </g>
      <g class="cls-55">
        <g>
          <rect class="cls-3" x="326.5" y="239.4" width="139.1" height="20"/>
          <text class="cls-27" transform="translate(357 253.8)"><tspan x="0" y="0">English (U.S.)</tspan></text>
        </g>
      </g>
      <g class="cls-56">
        <g>
          <rect class="cls-3" x="471" y="239.4" width="139" height="20"/>
          <text class="cls-27" transform="translate(513.9 253.8)"><tspan x="0" y="0">Mandarin</tspan></text>
        </g>
      </g>
      <g class="cls-52">
        <g>
          <rect class="cls-3" x="37.4" y="5.5" width="139.1" height="20"/>
          <text class="cls-27" transform="translate(84.2 19.8)"><tspan x="0" y="0">Gujarati</tspan></text>
        </g>
      </g>
      <g class="cls-53">
        <g>
          <rect class="cls-3" x="181.9" y="5.5" width="139.1" height="20"/>
          <text class="cls-27" transform="translate(236.5 19.8)"><tspan x="0" y="0">Hindi</tspan></text>
        </g>
      </g>
      <g class="cls-47">
        <g>
          <rect class="cls-3" x="326.5" y="5.5" width="139.1" height="20"/>
          <text class="cls-27" transform="translate(382 19.8)"><tspan x="0" y="0">Urdu</tspan></text>
        </g>
      </g>
      <g class="cls-48">
        <g>
          <rect class="cls-3" x="471" y="5.5" width="139" height="20"/>
          <text class="cls-27" transform="translate(519.2 19.8)"><tspan x="0" y="0">Marathi</tspan></text>
        </g>
      </g>
      <line class="cls-9" x1="43.7" y1="470.7" x2="43.7" y2="468"/>
      <line class="cls-9" x1="106.9" y1="470.7" x2="106.9" y2="468"/>
      <line class="cls-9" x1="170.1" y1="470.7" x2="170.1" y2="468"/>
      <text class="cls-26" transform="translate(37.3 480.8)"><tspan x="0" y="0">3rd</tspan></text>
      <text class="cls-26" transform="translate(98.6 480.8)"><tspan x="0" y="0">5th</tspan></text>
      <text class="cls-26" transform="translate(164 480.8)"><tspan x="0" y="0">7th</tspan></text>
      <line class="cls-9" x1="188.2" y1="470.7" x2="188.2" y2="468"/>
      <line class="cls-9" x1="251.4" y1="470.7" x2="251.4" y2="468"/>
      <line class="cls-9" x1="314.7" y1="470.7" x2="314.7" y2="468"/>
      <text class="cls-26" transform="translate(181.8 480.8)"><tspan x="0" y="0">3rd</tspan></text>
      <text class="cls-26" transform="translate(244.2 480.8)"><tspan x="0" y="0">5th</tspan></text>
      <text class="cls-26" transform="translate(308.5 480.8)"><tspan x="0" y="0">7th</tspan></text>
      <line class="cls-9" x1="332.8" y1="470.7" x2="332.8" y2="468"/>
      <line class="cls-9" x1="396" y1="470.7" x2="396" y2="468"/>
      <line class="cls-9" x1="459.2" y1="470.7" x2="459.2" y2="468"/>
      <text class="cls-26" transform="translate(326.4 480.8)"><tspan x="0" y="0">3rd</tspan></text>
      <text class="cls-26" transform="translate(388.7 480.8)"><tspan x="0" y="0">5th</tspan></text>
      <text class="cls-26" transform="translate(453.1 480.8)"><tspan x="0" y="0">7th</tspan></text>
      <line class="cls-9" x1="477.3" y1="470.7" x2="477.3" y2="468"/>
      <line class="cls-9" x1="540.5" y1="470.7" x2="540.5" y2="468"/>
      <line class="cls-9" x1="603.7" y1="470.7" x2="603.7" y2="468"/>
      <text class="cls-26" transform="translate(470.9 480.8)"><tspan x="0" y="0">3rd</tspan></text>
      <text class="cls-26" transform="translate(533.2 480.8)"><tspan x="0" y="0">5th</tspan></text>
      <text class="cls-26" transform="translate(597.6 480.8)"><tspan x="0" y="0">7th</tspan></text>
      <text class="cls-32" transform="translate(17.6 164.9)"><tspan x="0" y="0">0.0</tspan></text>
      <text class="cls-32" transform="translate(17.6 86)"><tspan x="0" y="0">0.5</tspan></text>
      <line class="cls-9" x1="34.7" y1="161.3" x2="37.4" y2="161.3"/>
      <line class="cls-9" x1="34.7" y1="82.4" x2="37.4" y2="82.4"/>
      <text class="cls-32" transform="translate(17.6 398.9)"><tspan x="0" y="0">0.0</tspan></text>
      <text class="cls-32" transform="translate(17.6 319.9)"><tspan x="0" y="0">0.5</tspan></text>
      <line class="cls-9" x1="34.7" y1="395.3" x2="37.4" y2="395.3"/>
      <line class="cls-9" x1="34.7" y1="316.3" x2="37.4" y2="316.3"/>
      <text class="cls-31" transform="translate(307.8 496.1)"><tspan x="0" y="0">Grade</tspan></text>
      <text class="cls-31" transform="translate(13.4 280) rotate(-90)"><tspan x="0" y="0">Comparative </tspan></text>
      <text class="cls-30" transform="translate(5 15.1)"><tspan x="0" y="0">A</tspan></text>
      <g class="cls-49">
        <rect class="cls-23" x="615.5" width="461.6" height="504"/>
      </g>
      <g class="cls-50">
        <g>
          <rect class="cls-24" x="652.9" y="5.5" width="418.8" height="402"/>
          <rect class="cls-35" x="660.6" y="246.8" width="46" height="20.6"/>
          <rect class="cls-40" x="711.6" y="251" width="46" height="16.4"/>
          <rect class="cls-34" x="762.7" y="228.6" width="46" height="38.8"/>
          <rect class="cls-41" x="813.8" y="236.3" width="46" height="31.1"/>
          <rect class="cls-36" x="864.8" y="265.8" width="46" height="1.6"/>
          <rect class="cls-37" x="915.9" y="154.3" width="46" height="113.1"/>
          <rect class="cls-39" x="967" y="144.4" width="46" height="123"/>
          <rect class="cls-38" x="1018.1" y="127.6" width="46" height="139.8"/>
          <line class="cls-7" x1="652.9" y1="267.4" x2="1071.7" y2="267.4"/>
          <line class="cls-9" x1="683.6" y1="218.8" x2="683.6" y2="218.8"/>
          <line class="cls-9" x1="683.6" y1="218.8" x2="683.6" y2="273.3"/>
          <line class="cls-9" x1="683.6" y1="273.3" x2="683.6" y2="273.3"/>
          <line class="cls-9" x1="734.6" y1="221.1" x2="734.6" y2="221.1"/>
          <line class="cls-9" x1="734.6" y1="221.1" x2="734.6" y2="280.8"/>
          <line class="cls-9" x1="734.6" y1="280.8" x2="734.6" y2="280.8"/>
          <line class="cls-9" x1="785.7" y1="204.2" x2="785.7" y2="204.2"/>
          <line class="cls-9" x1="785.7" y1="204.2" x2="785.7" y2="255.9"/>
          <line class="cls-9" x1="785.7" y1="255.9" x2="785.7" y2="255.9"/>
          <line class="cls-9" x1="836.8" y1="203.5" x2="836.8" y2="203.5"/>
          <line class="cls-9" x1="836.8" y1="203.5" x2="836.8" y2="267.4"/>
          <line class="cls-9" x1="836.8" y1="267.4" x2="836.8" y2="267.4"/>
          <line class="cls-9" x1="887.8" y1="233.9" x2="887.8" y2="233.9"/>
          <line class="cls-9" x1="887.8" y1="233.9" x2="887.8" y2="299.3"/>
          <line class="cls-9" x1="887.8" y1="299.3" x2="887.8" y2="299.3"/>
          <line class="cls-9" x1="938.9" y1="124.1" x2="938.9" y2="124.1"/>
          <line class="cls-9" x1="938.9" y1="124.1" x2="938.9" y2="183"/>
          <line class="cls-9" x1="938.9" y1="183" x2="938.9" y2="183"/>
          <line class="cls-9" x1="990" y1="117.4" x2="990" y2="117.4"/>
          <line class="cls-9" x1="990" y1="117.4" x2="990" y2="172.9"/>
          <line class="cls-9" x1="990" y1="172.9" x2="990" y2="172.9"/>
          <line class="cls-9" x1="1041" y1="97.6" x2="1041" y2="97.6"/>
          <line class="cls-9" x1="1041" y1="97.6" x2="1041" y2="160.9"/>
          <line class="cls-9" x1="1041" y1="160.9" x2="1041" y2="160.9"/>
        </g>
      </g>
      <g class="cls-51">
        <text class="cls-25" transform="translate(634.1 271)"><tspan x="0" y="0">0.0</tspan></text>
        <text class="cls-25" transform="translate(634.1 118.7)"><tspan x="0" y="0">0.5</tspan></text>
        <line class="cls-9" x1="650.2" y1="267.4" x2="652.9" y2="267.4"/>
        <line class="cls-9" x1="650.2" y1="115.1" x2="652.9" y2="115.1"/>
        <line class="cls-9" x1="683.6" y1="410.2" x2="683.6" y2="407.5"/>
        <line class="cls-9" x1="734.6" y1="410.2" x2="734.6" y2="407.5"/>
        <line class="cls-9" x1="785.7" y1="410.2" x2="785.7" y2="407.5"/>
        <line class="cls-9" x1="836.8" y1="410.2" x2="836.8" y2="407.5"/>
        <line class="cls-9" x1="887.8" y1="410.2" x2="887.8" y2="407.5"/>
        <line class="cls-9" x1="938.9" y1="410.2" x2="938.9" y2="407.5"/>
        <line class="cls-9" x1="990" y1="410.2" x2="990" y2="407.5"/>
        <line class="cls-9" x1="1041" y1="410.2" x2="1041" y2="407.5"/>
        <text class="cls-28" transform="translate(669.6 452.4) rotate(-60)"><tspan x="0" y="0">Gujarati</tspan></text>
        <text class="cls-28" transform="translate(727.7 440.2) rotate(-60)"><tspan x="0" y="0">Hindi</tspan></text>
        <text class="cls-28" transform="translate(779.7 438.6) rotate(-60)"><tspan x="0" y="0">Urdu</tspan></text>
        <text class="cls-28" transform="translate(824.1 450.2) rotate(-60)"><tspan x="0" y="0">Marathi</tspan></text>
        <text class="cls-28" transform="translate(880.6 440.4) rotate(-60)"><tspan class="cls-63" x="0" y="0">Tam</tspan><tspan x="25" y="0">i</tspan></text>
        <text class="cls-28" transform="translate(907.9 482) rotate(-60)"><tspan x="0" y="0">English (India)</tspan></text>
        <text class="cls-28" transform="translate(961.1 478.3) rotate(-60)"><tspan x="0" y="0">English (U.S.)</tspan></text>
        <text class="cls-28" transform="translate(1023.5 458.7) rotate(-60)"><tspan x="0" y="0">Mandarin</tspan></text>
        <text class="cls-28" transform="translate(817.5 496.1)"><tspan x="0" y="0">Language (A</tspan></text>
        <text class="cls-33" transform="translate(884.2 496.1) scale(.7)"><tspan x="0" y="0">UDIO</tspan></text>
        <text class="cls-33" transform="translate(903.4 496.1)"><tspan x="0" y="0">)</tspan></text>
        <text class="cls-28" transform="translate(628.9 299.5) rotate(-90)"><tspan x="0" y="0">Comparative</tspan><tspan class="cls-62" x="66.6" y="0"> </tspan><tspan x="69.5" y="0">Wealth</tspan></text>
        <text class="cls-29" transform="translate(620.6 15.1)"><tspan x="0" y="0">B</tspan></text>
      </g>
    </g>
  </g>
</svg>